<svg fill="none" height="30" viewBox="0 0 30 30" width="30" xmlns="http://www.w3.org/2000/svg"><path clip-rule="evenodd" d="m0 15c0-8.28427 6.71573-15 15-15 8.2803.00964345 14.9904 6.71973 15 15 0 8.2843-6.7157 15-15 15-8.28427 0-15-6.7157-15-15zm15.1025 6.8616 8.5563-11.6113c.2892-.35801.3583-.84603.1798-1.27028-.1784-.42425-.5756-.7161-1.0338-.75967s-.9033.16819-1.1585.5512l-7.7838 10.56375-5.095-4.0762c-.53917-.4315-1.32603-.3442-1.7575.195-.43147.5391-.34417 1.326.195 1.7575l6.11 4.885c.2671.2087.6069.3015.943.2573.3362-.0442.6404-.2216.8445-.4923z" fill="#5532c8" fill-rule="evenodd"/></svg>