<?xml version="1.0" standalone="no"?>
<!DOCTYPE svg PUBLIC "-//W3C//DTD SVG 20010904//EN"
 "http://www.w3.org/TR/2001/REC-SVG-20010904/DTD/svg10.dtd">
<svg version="1.0" xmlns="http://www.w3.org/2000/svg"
 width="512.000000pt" height="512.000000pt" viewBox="0 0 512.000000 512.000000"
 preserveAspectRatio="xMidYMid meet">

<g transform="translate(0.000000,512.000000) scale(0.100000,-0.100000)"
fill="#000000" stroke="none">
<path d="M2650 4635 c-8 -2 -37 -7 -63 -10 -27 -4 -57 -15 -68 -26 -24 -24
-25 -70 -1 -99 18 -22 20 -22 167 -13 425 25 751 -59 1081 -278 153 -102 344
-293 447 -449 175 -264 263 -533 282 -860 11 -186 13 -185 -147 -31 -148 143
-172 155 -216 108 -45 -48 -37 -61 179 -274 110 -109 209 -202 220 -207 12 -6
28 -5 43 2 13 6 96 100 185 208 171 210 183 232 141 274 -12 12 -33 20 -55 20
-31 0 -42 -9 -117 -99 l-83 -99 -6 136 c-12 235 -69 461 -174 680 -246 513
-718 879 -1281 993 -87 17 -151 22 -314 25 -113 1 -212 1 -220 -1z"/>
<path d="M1288 3832 c-587 -587 -748 -752 -748 -772 0 -19 226 -250 1063
-1088 1472 -1473 1430 -1432 1456 -1432 25 0 446 411 1149 1121 271 275 372
383 372 400 0 28 -77 107 -1435 1462 -836 833 -1066 1057 -1085 1057 -20 0
-185 -160 -772 -748z m1767 -432 l990 -990 -668 -667 -667 -668 -992 992 -993
993 665 665 c366 366 667 665 670 665 3 0 451 -446 995 -990z m675 -2005
l-670 -670 -122 123 -123 122 670 670 670 670 122 -122 123 -123 -670 -670z"/>
<path d="M1578 3762 c-120 -120 -138 -142 -138 -170 0 -42 30 -72 73 -72 28 0
49 17 169 138 77 76 140 148 143 162 10 40 -27 80 -73 80 -33 0 -47 -11 -174
-138z"/>
<path d="M1277 3452 c-67 -68 -75 -106 -31 -141 42 -33 62 -26 131 42 68 69
75 89 42 131 -35 45 -74 36 -142 -32z"/>
<path d="M3563 1558 c-114 -113 -133 -136 -133 -163 0 -39 36 -75 75 -75 23 0
52 23 147 118 155 152 171 180 123 227 -46 47 -66 37 -212 -107z"/>
<path d="M374 2425 c-88 -107 -163 -206 -168 -219 -20 -54 40 -110 91 -87 12
6 57 53 100 105 l78 94 6 -122 c14 -266 69 -476 190 -721 227 -459 634 -794
1136 -935 151 -43 291 -61 471 -61 190 0 299 14 326 41 26 25 25 76 -2 102
-20 21 -24 21 -169 9 -307 -25 -597 28 -868 159 -398 192 -705 539 -849 958
-57 165 -77 275 -83 467 l-6 170 89 -82 c49 -45 111 -104 139 -132 39 -41 56
-51 82 -51 41 0 73 30 73 70 0 25 -30 59 -202 229 -188 186 -206 201 -239 201
-36 0 -42 -6 -195 -195z"/>
</g>
</svg>
